<?xml version="1.0" standalone="no"?>
<!DOCTYPE svg PUBLIC "-//W3C//DTD SVG 20010904//EN"
 "http://www.w3.org/TR/2001/REC-SVG-20010904/DTD/svg10.dtd">
<svg version="1.0" xmlns="http://www.w3.org/2000/svg"
 width="142.000000pt" height="142.000000pt" viewBox="0 0 142.000000 142.000000"
 preserveAspectRatio="xMidYMid meet">
<metadata>
Created by potrace 1.11, written by Peter Selinger 2001-2013
</metadata>
<g transform="translate(0.000000,142.000000) scale(0.100000,-0.100000)"
fill="#000000" stroke="none">
<path d="M176 1406 c-77 -28 -146 -102 -166 -178 -7 -25 -10 -215 -8 -541 3
-493 3 -503 25 -542 25 -47 74 -95 123 -121 33 -18 67 -19 560 -19 483 0 528
1 557 18 52 28 102 77 126 121 22 41 22 45 22 566 0 493 -1 527 -19 560 -26
49 -74 98 -121 123 -39 22 -48 22 -550 24 -417 2 -517 0 -549 -11z"/>
</g>
</svg>
